<?xml version="1.0" standalone="no"?><!DOCTYPE svg PUBLIC "-//W3C//DTD SVG 1.1//EN" "http://www.w3.org/Graphics/SVG/1.1/DTD/svg11.dtd"><svg t="1660360251863" class="icon" viewBox="0 0 1024 1024" version="1.1" xmlns="http://www.w3.org/2000/svg" p-id="5620" xmlns:xlink="http://www.w3.org/1999/xlink" width="200" height="200"><defs><style type="text/css">@font-face { font-family: feedback-iconfont; src: url("//at.alicdn.com/t/font_1031158_u69w8yhxdu.woff2?t=1630033759944") format("woff2"), url("//at.alicdn.com/t/font_1031158_u69w8yhxdu.woff?t=1630033759944") format("woff"), url("//at.alicdn.com/t/font_1031158_u69w8yhxdu.ttf?t=1630033759944") format("truetype"); }
</style></defs><path d="M896 0l128 0 0 128-128 0 0-128Z" p-id="5621" fill="#13227a"></path><path d="M0 0l768 0 0 128-768 0 0-128Z" p-id="5622" fill="#13227a"></path><path d="M896 448l128 0 0 128-128 0 0-128Z" p-id="5623" fill="#13227a"></path><path d="M0 448l768 0 0 128-768 0 0-128Z" p-id="5624" fill="#13227a"></path><path d="M896 896l128 0 0 128-128 0 0-128Z" p-id="5625" fill="#13227a"></path><path d="M0 896l768 0 0 128-768 0 0-128Z" p-id="5626" fill="#13227a"></path></svg>