<?xml version="1.0" standalone="no"?><!DOCTYPE svg PUBLIC "-//W3C//DTD SVG 1.1//EN" "http://www.w3.org/Graphics/SVG/1.1/DTD/svg11.dtd"><svg t="1661002065798" class="icon" viewBox="0 0 1024 1024" version="1.1" xmlns="http://www.w3.org/2000/svg" p-id="3620" xmlns:xlink="http://www.w3.org/1999/xlink" width="200" height="200"><defs><style type="text/css">@font-face { font-family: feedback-iconfont; src: url("//at.alicdn.com/t/font_1031158_u69w8yhxdu.woff2?t=1630033759944") format("woff2"), url("//at.alicdn.com/t/font_1031158_u69w8yhxdu.woff?t=1630033759944") format("woff"), url("//at.alicdn.com/t/font_1031158_u69w8yhxdu.ttf?t=1630033759944") format("truetype"); }
</style></defs><path d="M512.842811 176.227102c72.609001 0 145.218002-0.095413 217.827003 0.031804 76.45731 0.127217 128.26636 51.172966 128.329969 126.707954 0.127217 139.334224 0.127217 278.668447 0 418.002671-0.063608 75.312358-52.127093 126.771563-128.298165 126.803367-146.808212 0.063608-293.648228 0.190825-440.45644-0.159021-70.509923-0.159021-124.163618-51.395596-124.608876-121.046806-0.922322-143.023512-0.922322-286.078827 0-429.102338 0.445259-69.683014 53.84452-120.315309 124.608876-120.983197 37.115508-0.349846 74.231015-0.159021 111.314719-0.190826 37.083703-0.095413 74.199211-0.063608 111.282914-0.063608z" fill="#123450" p-id="3621"></path><path d="M184.241762 729.970121c-0.190825-58.265304-0.222629-116.530608-0.667889-174.795912-0.063608-7.664813 2.353511-9.98652 10.050129-9.8275 21.499643 0.445259 43.03109 0.38165 64.530733 0.031805 7.442184-0.127217 10.781626 1.844644 13.675808 9.445849 12.817095 33.585241 42.045159 53.812715 76.012051 54.194365 34.41215 0.413455 64.371712-19.973041 77.634065-54.067149 2.830574-7.283163 6.010995-9.636674 13.675809-9.60487 47.324658 0.318042 94.681119 0.413455 142.005777-0.063608 8.746156-0.095413 11.513122 3.307637 14.3755 10.718017 12.689878 32.82194 42.713048 53.144827 76.807156 53.01761 33.20359-0.127217 63.735628-20.481908 75.630401-52.286113 3.530267-9.382241 8.078268-11.640339 17.301487-11.385906 21.499643 0.572476 43.03109 0.222629 64.530733 0.159021 6.010995 0 11.767556-0.922322 11.703948 8.332702-0.445259 59.314843-0.508867 118.66149-0.795105 177.976333 0 1.526602-0.890518 3.0214-1.367581 4.548002-17.078858 45.766252-67.075069 77.093394-125.563003 77.538652-68.22002 0.508867-136.440041 0.127217-204.660062 0.127217H314.130136c-42.999286 0-79.669534-14.280088-109.43827-45.511818-10.622605-11.163276-18.128397-23.376091-20.450104-38.546697z" fill="#FBDBCB" p-id="3622"></path><path d="M511.157189 389.283474c-103.268255 0-206.53651-0.286238-309.804765 0.318042-14.184676 0.095413-18.923502-3.371246-17.905767-17.61953 2.321707-32.122247-3.0214-64.562537 3.212224-96.621176 8.809765-45.352797 50.028015-79.987576 96.971022-80.051185 152.755598-0.286238 305.511197-0.286238 458.234991 0.031804 46.81579 0.095413 90.610181 38.801131 97.352673 83.963102 4.866043 32.694723 1.685623 65.548467 2.735162 98.274995 0.445259 13.6122-9.318632 11.672143-17.778551 11.672143-104.317794 0.031804-208.667391 0.031804-313.016989 0.031805z" fill="#7D4228" p-id="3623"></path><path d="M513.065441 406.330528c103.808926 0 207.617853 0.222629 311.426779-0.286238 13.039724-0.063608 17.842159 2.766966 17.237879 16.442774-1.144951 25.379756-0.636084 50.854924-0.159021 76.266484 0.159021 8.682548-1.971861 12.149206-11.544926 11.894773-23.121657-0.636084-46.243315-0.413455-69.364972-0.095412-6.360841 0.095413-9.414045-1.876448-11.672144-7.919247-13.103333-35.175451-39.564431-54.289779-76.966177-54.4488-37.592571-0.127217-64.021865 19.336957-77.188806 54.289778-2.766966 7.346771-6.551666 8.01466-12.880703 8.01466-47.865329-0.127217-95.730658-0.190825-143.595988 0.031804-6.837904 0.031804-10.018325-1.81284-12.78529-8.587135-14.21648-34.825605-43.380936-55.402926-77.538653-54.035345-36.924682 1.462993-62.876914 19.718607-76.139267 53.84452-2.639749 6.774296-5.502128 8.905178-12.435445 8.77796-22.040314-0.349846-44.112433-0.477063-66.152747 0.031805-8.078268 0.190825-9.827499-2.79877-9.732087-10.081933 0.38165-26.492903 0.795105-53.01761-0.159021-79.446905-0.413455-11.79936 2.703357-15.106998 15.011585-15.04339 90.896419 0.540671 181.792838 0.286238 272.689257 0.286238 13.962046 0.063608 27.955897 0.063608 41.949747 0.063609z" fill="#FBDBCB" p-id="3624"></path><path d="M184.241762 729.970121c25.793211 51.936267 68.506258 78.842625 126.739758 79.160668 133.355033 0.763301 266.74187 0.508867 400.096903 0.095412 54.480604-0.159021 97.193652-22.167531 124.895115-69.65121 0.763301-1.303972 2.258099-2.162686 3.40305-3.244028-1.622014 45.511818-41.727117 87.334348-88.63832 92.232195-6.392645 0.667888-12.848899 0.98593-19.305153 0.98593-146.076715 0.063608-292.185235 0.190825-438.26195 0-57.311178-0.095413-99.642575-34.984626-108.547753-88.574712-0.60428-3.562071-0.286238-7.314967-0.38165-11.004255z" fill="#EFC0AC" p-id="3625"></path><path d="M672.658943 574.065907c-26.492903 0.222629-46.275119-18.382831-46.624965-43.857999-0.38165-27.669659 19.273348-48.151567 46.084294-48.024351 25.63419 0.127217 47.324658 21.690468 46.943007 46.688574-0.38165 24.711868-21.181601 44.971146-46.402336 45.193776zM348.637699 574.065907c-26.556511-0.031804-46.752182-20.100258-46.465944-46.211511 0.286238-25.157126 20.577321-45.416405 45.893468-45.734447 25.443364-0.318042 47.483679 20.863559 47.801721 45.957077 0.286238 25.157126-21.086188 45.988881-47.229245 45.988881z" fill="#91D3EA" p-id="3626"></path><path d="M555.524055 730.924248c-4.261764 4.802435-10.908842 8.523527-15.997515 5.820169-16.951641-8.905178-32.21766-1.876448-47.801721 2.79877-7.092338 2.130882-12.467249 4.38898-16.124732-5.343106-4.198155-11.067863 4.866043-9.98652 9.827499-11.608535 17.683138-5.82017 35.398081-12.594465 54.639625-6.010995 6.965121 2.448924 11.926577 6.742492 15.456844 14.343697z" fill="#163651" p-id="3627"></path><path d="M380.600926 292.121626c0 18.478243-0.127217 36.956487 0.063608 55.43473 0.063608 7.982856-2.067273 13.580396-11.544927 13.325962-9.191415-0.254434-7.79203-6.933317-7.823834-12.562661-0.063608-36.415815 0.286238-72.863434-0.254434-109.27925-0.127217-9.064199 4.166351-13.071528 11.735752-13.453178 8.777961-0.413455 7.728422 7.060534 7.760226 12.689878 0.159021 17.937572 0.063608 35.875144 0.063609 53.844519zM480.68876 292.535081c0 18.478243-0.063608 36.956487 0.031804 55.43473 0.031804 7.124142-1.653819 12.530857-10.336367 12.880703-10.272758 0.413455-9.00059-6.710687-9.00059-12.976116-0.031804-35.906948 0.318042-71.782091-0.254433-107.689039-0.159021-9.414045 3.40305-14.757151 12.18101-14.566326 9.700283 0.222629 7.219555 8.809765 7.314967 14.661739 0.254434 17.3969 0.095413 34.825605 0.063609 52.254309zM525.946144 294.316116c0 17.937572 0.063608 35.906948-0.031804 53.84452-0.031804 5.565736 1.558406 12.340032-7.664814 12.658074-9.445849 0.318042-11.703948-5.152281-11.672143-13.166941 0.127217-36.956487 0.031804-73.912973 0.095413-110.86946 0-5.343107 0.095413-11.831164 7.664813-11.226885 6.297233 0.508867 12.117402 2.79877 11.831164 11.735752-0.636084 19.018915-0.222629 38.03783-0.222629 57.02494z" fill="#65331D" p-id="3628"></path><path d="M277.332671 295.77911c0 17.969376-0.095413 35.938752 0.063608 53.876324 0.063608 6.551666-0.954126 11.258689-9.38224 11.322297-7.887443 0.031804-10.113737-3.530267-10.081934-10.654409 0.159021-37.497158 0.159021-75.02612 0-112.523279-0.031804-7.219555 2.385315-10.5908 10.20915-10.527191 8.523527 0.063608 9.286828 4.99326 9.255024 11.449513-0.159021 19.018915-0.063608 38.03783-0.063608 57.056745zM771.283784 295.17483c0 18.510048-0.063608 37.051899 0.063609 55.561947 0.031804 6.074603-1.240364 10.431779-8.777961 10.145541-6.424449-0.254434-10.431779-3.116812-10.431779-9.509457-0.127217-38.64211-0.063608-77.252415-0.095413-115.894525 0-6.329037 3.657484-7.951051 9.286828-8.078268 6.551666-0.159021 10.050129 2.099078 10.018325 9.064199-0.159021 19.527782-0.063608 39.119173-0.063609 58.710563zM703.509023 292.725906c0-16.919837-0.127217-33.871479 0.063608-50.791316 0.063608-6.456254-2.289903-14.343697 9.159611-14.629934 11.004255-0.254434 10.113737 6.742492 10.113737 13.771221-0.031804 34.921017-0.063608 69.842035 0.031805 104.763052 0.031804 8.046464-0.60428 15.329627-11.513123 14.947977-10.463584-0.38165-7.696618-8.332702-7.79203-14.121068-0.222629-17.969376-0.063608-35.970556-0.063608-53.939932zM671.227754 295.77911c0 17.460509 0.095413 34.921017-0.031804 52.381526-0.031804 5.565736 1.558406 12.371836-7.728422 12.658074-8.205485 0.254434-11.608535-3.880113-11.576731-11.672144 0.063608-37.560767 0.095413-75.153337-0.031804-112.714103-0.031804-6.965121 3.466658-9.096003 9.986521-9.096003 6.996925 0 9.445849 3.148616 9.414044 9.700283-0.159021 19.559586-0.063608 39.150977-0.031804 58.742367zM619.54592 295.429264c0 18.00118-0.031804 35.970556 0.031805 53.971736 0.031804 6.265428-0.222629 11.894773-9.032395 11.449514-7.537597-0.38165-10.304563-4.484393-10.304562-11.354101 0-37.560767 0.063608-75.153337-0.063609-112.714104-0.031804-6.742492 2.862378-9.445849 9.668479-9.445849 6.710687 0 9.795695 2.544336 9.763891 9.350436-0.190825 19.559586-0.063608 39.150977-0.063609 58.742368z" fill="#65321D" p-id="3629"></path><path d="M309.613939 294.1889c0-18.510048 0.095413-37.051899-0.063608-55.561947-0.063608-6.583471 0.954126-11.290493 9.414045-11.322297 7.951051-0.031804 10.081933 3.657484 10.050128 10.718017-0.159021 36.511228-0.127217 73.022456 0 109.533683 0.031804 8.01466-2.130882 13.580396-11.640339 13.262354-9.255024-0.286238-7.696618-7.092338-7.728422-12.658074-0.095413-18.00118-0.031804-35.970556-0.031804-53.971736z" fill="#65331D" p-id="3630"></path><path d="M567.927695 295.810914v53.939932c0 5.438519 0.254434 10.908842-7.760226 11.099668-7.728422 0.190825-8.459919-4.61161-8.459919-10.431779 0.063608-37.528962 0.063608-75.089729 0-112.618692 0-5.883778 0.890518-10.558996 8.587136-10.304562 8.046464 0.286238 7.601205 5.851974 7.601205 11.226884 0.063608 19.018915 0.031804 38.03783 0.031804 57.088549z" fill="#65321D" p-id="3631"></path><path d="M429.102339 294.284312v55.530143c0 5.502128 0.127217 10.877038-7.823835 11.036059-7.728422 0.159021-8.39631-4.738827-8.364506-10.495388 0.063608-37.528962 0.063608-75.089729 0-112.618691 0-5.947386 1.017735-10.527192 8.650744-10.20915 8.078268 0.318042 7.537597 5.979191 7.537597 11.290493v55.466534z" fill="#65331D" p-id="3632"></path></svg>