<?xml version="1.0" standalone="no"?><!DOCTYPE svg PUBLIC "-//W3C//DTD SVG 1.1//EN" "http://www.w3.org/Graphics/SVG/1.1/DTD/svg11.dtd"><svg t="1666932723966" class="icon" viewBox="0 0 1024 1024" version="1.1" xmlns="http://www.w3.org/2000/svg" p-id="1957" xmlns:xlink="http://www.w3.org/1999/xlink" width="200" height="200"><path d="M509.4 916.2c-54.8 0-108-10.7-158.1-31.9-48.4-20.5-91.8-49.8-129.1-87.1s-66.6-80.7-87.1-129.1c-21.2-50.1-32-103.3-32-158.1s10.7-108 31.9-158.1c20.5-48.4 49.7-91.8 87.1-129.1 37.3-37.3 80.7-66.6 129.1-87.1 50.1-21.2 103.3-31.9 158.1-31.9s108 10.7 158.1 31.9c48.4 20.5 91.8 49.7 129.1 87.1 37.3 37.3 66.6 80.7 87.1 129.1 21.2 50.1 31.9 103.3 31.9 158.1s-10.7 108-31.9 158.1c-20.5 48.4-49.8 91.8-87.1 129.1s-80.7 66.6-129.1 87.1c-50 21.2-103.2 31.9-158 31.9z" fill="#F7D7FF" p-id="1958"></path><path d="M509.4 112.7c219.4 0 397.2 177.8 397.2 397.2S728.7 907.2 509.4 907.2 112.1 729.3 112.1 510 290 112.7 509.4 112.7m0-18c-56 0-110.4 11-161.6 32.6-49.4 20.9-93.9 50.9-132 89-38.1 38.1-68.1 82.5-89 132-21.7 51.2-32.7 105.6-32.7 161.7s11 110.4 32.6 161.6c20.9 49.4 50.9 93.9 89 132 38.1 38.1 82.5 68.1 132 89 51.2 21.7 105.6 32.6 161.6 32.6s110.4-11 161.6-32.6c49.4-20.9 93.9-50.9 132-89 38.1-38.1 68.1-82.5 89-132 21.7-51.2 32.6-105.6 32.6-161.6s-11-110.4-32.6-161.6c-20.9-49.4-50.9-93.9-89-132-38.1-38.1-82.5-68.1-132-89-51.1-21.7-105.5-32.7-161.5-32.7z" fill="#330867" p-id="1959"></path><path d="M877.5 659.4c-59.1 145.3-201.6 247.8-368.1 247.8-166.5 0-309.1-102.5-368.1-247.8-9.5-23.3 179.3-132.6 368-128 185.1 4.5 370.4 122.7 368.2 128z" fill="#F0BEFC" p-id="1960"></path><path d="M509.4 358.8c-1.4 0-2.8-0.3-4.1-1L304.6 256c-3-1.5-4.9-4.6-4.9-8s1.9-6.5 4.9-8l200.7-101.8c1.3-0.6 2.7-1 4.1-1s2.8 0.3 4.1 1L714.2 240c3 1.5 4.9 4.6 4.9 8s-1.9 6.5-4.9 8L513.4 357.8c-1.2 0.6-2.6 1-4 1z" fill="#330867" p-id="1961"></path><path d="M509.4 146.1l200.7 101.8-200.7 101.9-200.7-101.9 200.7-101.8m0-18c-2.8 0-5.6 0.6-8.1 1.9L300.5 231.9c-6 3.1-9.9 9.3-9.9 16.1s3.8 13 9.9 16.1l200.7 101.8c2.6 1.3 5.4 1.9 8.1 1.9 2.8 0 5.6-0.6 8.1-1.9L718.2 264c6-3.1 9.9-9.3 9.9-16.1s-3.8-13-9.9-16.1L517.5 130.1c-2.5-1.3-5.3-2-8.1-2z" fill="#330867" p-id="1962"></path><path d="M261.7 799.8c-5 0-9-4-9-9v-93.7c0-98.2 79.9-178.1 178.1-178.1h157.1c98.2 0 178.1 79.9 178.1 178.1v93.7c0 5-4 9-9 9H261.7z" fill="#66C1FF" p-id="1963"></path><path d="M587.9 528c93.4 0 169.1 75.7 169.1 169.1v93.7H261.7v-93.7c0-93.4 75.7-169.1 169.1-169.1h157.1m0-18H430.8c-25.3 0-49.8 5-72.8 14.7-22.3 9.4-42.3 22.9-59.5 40.1-17.2 17.2-30.7 37.2-40.1 59.5-9.8 23.1-14.7 47.6-14.7 72.8v93.7c0 9.9 8.1 18 18 18H757c9.9 0 18-8.1 18-18v-93.7c0-25.3-5-49.8-14.7-72.8-9.4-22.3-22.9-42.3-40.1-59.5-17.2-17.2-37.2-30.7-59.5-40.1-23-9.7-47.5-14.7-72.8-14.7z" fill="#330867" p-id="1964"></path><path d="M261.7 748.5H757v42.4H261.7z" fill="#18A3D3" p-id="1965"></path><path d="M509.4 641.7c-1.9 0-3.7-0.6-5.3-1.7l-70.6-51.3c-2.3-1.7-3.7-4.4-3.7-7.3V440.1c0-5 4-9 9-9H580c5 0 9 4 9 9v141.3c0 2.9-1.4 5.6-3.7 7.3L514.7 640c-1.6 1.1-3.5 1.7-5.3 1.7z" fill="#FFE08A" p-id="1966"></path><path d="M580 440.1v141.3l-70.6 51.3-70.6-51.3V440.1H580m0-18H438.7c-9.9 0-18 8.1-18 18v141.3c0 5.8 2.8 11.2 7.4 14.6l70.6 51.3c3.2 2.3 6.9 3.4 10.6 3.4s7.4-1.1 10.6-3.4l70.6-51.3c4.7-3.4 7.4-8.8 7.4-14.6V440.1c0.1-10-8-18-17.9-18z" fill="#330867" p-id="1967"></path><path d="M509.4 498.9c-64.3 0-116.6-52.3-116.6-116.6v-94.8c0-5 4-9 9-9H617c5 0 9 4 9 9v94.8c0 64.3-52.3 116.6-116.6 116.6z" fill="#FFE08A" p-id="1968"></path><path d="M617 287.5v94.8c0 59.4-48.2 107.6-107.6 107.6-59.4 0-107.6-48.2-107.6-107.6v-94.8H617m0-18H401.8c-9.9 0-18 8.1-18 18v94.8c0 33.5 13.1 65.1 36.8 88.8s55.3 36.8 88.8 36.8 65.1-13.1 88.8-36.8 36.8-55.3 36.8-88.8v-94.8c0-10-8.1-18-18-18z" fill="#330867" p-id="1969"></path><path d="M645.7 325.7c-0.6 0-1.1-0.1-1.7-0.2-44.3-8.4-89.5-12.7-134.6-12.7s-90.3 4.3-134.6 12.7c-0.6 0.1-1.1 0.2-1.7 0.2-1.8 0-3.6-0.5-5.1-1.6-2-1.3-3.3-3.4-3.8-5.8l-10.5-54.9c-0.4-2.3 0.1-4.8 1.4-6.7 1.3-2 3.4-3.3 5.8-3.8 48.8-9.3 98.8-14 148.4-14s99.6 4.7 148.4 14c2.3 0.4 4.4 1.8 5.8 3.8 1.3 2 1.8 4.4 1.4 6.7l-10.5 54.9c-0.4 2.3-1.8 4.4-3.8 5.8-1.4 1.1-3.2 1.6-4.9 1.6z" fill="#F0BEFC" p-id="1970"></path><path d="M509.4 248c49.1 0 98.3 4.6 146.8 13.9l-10.5 54.9c-45-8.6-90.7-12.9-136.3-12.9s-91.3 4.3-136.3 12.9l-10.5-54.9c48.5-9.3 97.6-13.9 146.8-13.9m0-18c-50.3 0-100.8 4.8-150.1 14.2-9.8 1.9-16.2 11.3-14.3 21.1l10.5 54.9c1.6 8.6 9.2 14.6 17.7 14.6 1.1 0 2.3-0.1 3.4-0.3 43.7-8.3 88.4-12.6 132.9-12.6s89.2 4.2 132.9 12.6c1.1 0.2 2.3 0.3 3.4 0.3 8.5 0 16-6 17.7-14.6l10.5-54.9c1.9-9.8-4.5-19.2-14.3-21.1-49.6-9.5-100.1-14.2-150.3-14.2z" fill="#330867" p-id="1971"></path><path d="M530.1 434.2h-41.4c-5 0-9-4-9-9s4-9 9-9h41.4c5 0 9 4 9 9s-4.1 9-9 9z" fill="#330867" p-id="1972"></path></svg>