<?xml version="1.0" standalone="no"?><!DOCTYPE svg PUBLIC "-//W3C//DTD SVG 1.1//EN" "http://www.w3.org/Graphics/SVG/1.1/DTD/svg11.dtd"><svg t="1666229713898" class="icon" viewBox="0 0 1024 1024" version="1.1" xmlns="http://www.w3.org/2000/svg" p-id="6485" xmlns:xlink="http://www.w3.org/1999/xlink" width="200" height="200"><path d="M831.154365 571.728336c24.189935 0 43.814901-19.567661 43.814901-43.786249 0-24.218588-19.62599-43.843554-43.814901-43.843554L553.662377 484.098533l0-52.827159c2.137687-3.709485 3.663436-7.417947 4.632507-11.468193l310.455751-268.363074c17.086144-17.115819 17.086144-44.840254 0-61.95812-17.116843-17.11275-44.868907-17.11275-61.987796 0L509.847475 346.181417 212.90039 89.481987c-17.086144-17.11275-44.843324-17.11275-61.95812 0-17.114796 17.117866-17.114796 44.843324 0 61.95812l310.453704 268.39275c0.968048 4.021593 2.494821 7.758708 4.6366 11.43954l0 52.827159L188.541609 484.099557c-24.189935 0-43.815925 19.62599-43.815925 43.843554 0 24.218588 19.627013 43.786249 43.815925 43.786249l277.491988 0 0 87.62878L188.541609 659.358139c-24.189935 0-43.815925 19.62599-43.815925 43.813878 0 24.24724 19.627013 43.813878 43.815925 43.813878l277.491988 0 0 160.653957c0 24.246217 19.624966 43.813878 43.813878 43.813878 24.188912 0 43.813878-19.567661 43.813878-43.813878L553.661354 746.985896l277.491988 0c24.189935 0 43.814901-19.566638 43.814901-43.813878 0-24.188912-19.62599-43.813878-43.814901-43.813878L553.662377 659.358139l0-87.62878L831.154365 571.729359z" p-id="6486" fill="#f4ea2a"></path></svg>